<svg xmlns="http://www.w3.org/2000/svg" width="28" height="26" viewBox="0 0 28 26">
    <path d="M14 0C6.265 0 0 5.969 0 13.33a13.406 13.406 0 0 0 9.572 12.647c.7.125.957-.287.957-.641 0-.317-.012-1.155-.018-2.266-3.894.8-4.716-1.788-4.716-1.788a3.589 3.589 0 0 0-1.557-1.95c-1.268-.826.1-.809.1-.809A2.923 2.923 0 0 1 6.481 19.9a3.071 3.071 0 0 0 4.077 1.1 2.792 2.792 0 0 1 .887-1.783c-3.109-.333-6.377-1.48-6.377-6.587a5.008 5.008 0 0 1 1.441-3.572 4.53 4.53 0 0 1 .122-3.528s1.169-.357 3.85 1.37a13.839 13.839 0 0 1 7 0c2.66-1.724 3.832-1.367 3.832-1.367a4.655 4.655 0 0 1 .14 3.528 5.028 5.028 0 0 1 1.435 3.577c0 5.121-3.273 6.248-6.388 6.576a3.112 3.112 0 0 1 .945 2.467c0 1.784-.017 3.217-.017 3.65 0 .349.245.766.962.633A13.367 13.367 0 0 0 28 13.33C28 5.969 21.731 0 14 0z"/>
</svg>
